<?xml version="1.0" standalone="no"?>
<!DOCTYPE svg PUBLIC "-//W3C//DTD SVG 20010904//EN"
 "http://www.w3.org/TR/2001/REC-SVG-20010904/DTD/svg10.dtd">
<svg version="1.0" xmlns="http://www.w3.org/2000/svg"
 width="700.000000pt" height="700.000000pt" viewBox="0 0 700.000000 700.000000"
 preserveAspectRatio="xMidYMid meet">
<metadata>
Created by potrace 1.14, written by Peter Selinger 2001-2017
</metadata>
<g transform="translate(0.000000,700.000000) scale(0.100000,-0.100000)"
fill="#000000" stroke="none">
<path d="M2713 6666 c-80 -26 -151 -85 -187 -154 -8 -15 -93 -324 -191 -687
-97 -363 -181 -677 -187 -697 l-11 -38 -618 0 c-607 0 -619 0 -675 -21 -259
-97 -275 -458 -26 -581 l67 -33 537 -3 c385 -2 538 -6 538 -14 0 -6 -113 -433
-252 -949 l-251 -938 -601 -3 c-684 -4 -653 0 -750 -89 -74 -67 -100 -130
-101 -234 0 -61 5 -91 22 -126 30 -66 86 -124 151 -156 l57 -28 523 -3 c309
-2 522 -6 522 -12 0 -5 -72 -278 -161 -607 -170 -636 -177 -672 -145 -762 46
-126 166 -211 301 -211 114 0 231 73 279 173 13 29 107 359 207 734 l183 683
1128 0 c620 0 1128 -3 1128 -7 0 -3 -73 -277 -162 -607 -181 -672 -183 -684
-136 -787 71 -155 245 -228 403 -168 73 27 153 104 177 169 14 36 378 1382
378 1396 0 2 279 4 620 4 608 0 620 0 676 21 75 28 140 89 175 164 71 149 7
339 -139 414 -70 36 -150 41 -659 41 -368 0 -493 3 -493 12 0 6 113 433 252
949 l251 938 601 3 c684 4 653 0 750 89 164 150 129 413 -69 514 l-59 30 -523
3 c-309 2 -523 6 -523 12 0 5 72 278 161 607 151 562 160 603 157 673 -7 168
-124 287 -293 297 -126 9 -246 -60 -299 -170 -14 -29 -107 -359 -207 -734
l-183 -683 -1128 0 c-620 0 -1128 3 -1128 7 0 3 73 277 162 607 181 672 183
684 135 789 -30 67 -87 126 -152 157 -59 29 -170 36 -232 16z m2167 -2223 c0
-5 -113 -432 -252 -950 l-253 -943 -1127 0 c-621 0 -1128 3 -1128 8 0 4 113
431 252 950 l253 942 1127 0 c621 0 1128 -3 1128 -7z"/>
</g>
</svg>
